# xmcd
#
# Track frame offsets:
#	150
#	10382
#	21020
#	30863
#	40868
#	50043
#	63670
#	74624
#	84438
#	97160
#	108049
#	117435
#	129181
#	140326
#	151824
#	161848
#	174050
#	183341
#	195478
#	205187
#	215895
#	227520
#	239592
#	250465
#	262229
#
# Disc length: 3666 seconds
#
# Revision: 1
# Processed by: cddbd v1.5.2PL0 Copyright (c) Steve Scherf et al.
# Submitted via: audiograbber 1.83.01
#
DISCID=600e5019
DTITLE=Betty Everett - The Shoop Shoop Song (It's In His Kiss) - 25 Greatest Hi
DTITLE=ts
DYEAR=1966
DGENRE=Oldies
TTITLE0=The Shoop Shoop Song
TTITLE1=You're No Good
TTITLE2=Too Hot To Hold
TTITLE3=Gettin' Mighty Crowded
TTITLE4=Hands Off
TTITLE5=Chained To Your Love
TTITLE6=It Hurts To Be In Love
TTITLE7=By My Side
TTITLE8=I Don't Hurt Anymore
TTITLE9=Where Are You
TTITLE10=The Real Thing
TTITLE11=Can I Get To Know You
TTITLE12=Hound Dog
TTITLE13=June Night
TTITLE14=I Need You So
TTITLE15=Prince Of Players
TTITLE16=Someday Soon
TTITLE17=No Place To Hide
TTITLE18=Trouble Over The Weekend
TTITLE19=Down In The Country
TTITLE20=Gotta Be Ready
TTITLE21=With You I Stand
TTITLE22=The Show Won't Fit
TTITLE23=I Can't Hear You
TTITLE24=Until You Were Gone
EXTD=
EXTT0=
EXTT1=
EXTT2=
EXTT3=
EXTT4=
EXTT5=
EXTT6=
EXTT7=
EXTT8=
EXTT9=
EXTT10=
EXTT11=
EXTT12=
EXTT13=
EXTT14=
EXTT15=
EXTT16=
EXTT17=
EXTT18=
EXTT19=
EXTT20=
EXTT21=
EXTT22=
EXTT23=
EXTT24=
PLAYORDER=
